<?xml version="1.0" encoding="UTF-8" standalone="no"?>
<!-- Created with Inkscape (http://www.inkscape.org/) -->

<svg
   width="96.384903mm"
   height="87.13868mm"
   viewBox="0 0 96.384903 87.13868"
   version="1.1"
   id="svg1"
   xml:space="preserve"
   inkscape:version="1.4.4 (dcaf3e7d9e, 2026-05-05)"
   sodipodi:docname="logo_color.svg"
   xmlns:inkscape="http://www.inkscape.org/namespaces/inkscape"
   xmlns:sodipodi="http://sodipodi.sourceforge.net/DTD/sodipodi-0.dtd"
   xmlns="http://www.w3.org/2000/svg"
   xmlns:svg="http://www.w3.org/2000/svg"><sodipodi:namedview
     id="namedview1"
     borderopacity="0.25"
     inkscape:showpageshadow="2"
     inkscape:pageopacity="0.0"
     inkscape:pagecheckerboard="0"
     inkscape:deskcolor="#d1d1d1"
     inkscape:document-units="mm"
     inkscape:zoom="2.6708955"
     inkscape:cx="-145.26963"
     inkscape:cy="167.73401"
     inkscape:window-width="3440"
     inkscape:window-height="1307"
     inkscape:window-x="0"
     inkscape:window-y="0"
     inkscape:window-maximized="1"
     inkscape:current-layer="g28" /><defs
     id="defs1" /><g
     inkscape:label="Layer 1"
     inkscape:groupmode="layer"
     id="layer1"
     transform="translate(-46.651417,-111.23491)"><rect
       style="stroke-width:0.264583"
       id="rect28"
       width="96.384903"
       height="87.13868"
       x="46.651417"
       y="111.23491" /><g
       id="g28"
       transform="translate(-0.46056024,2.7466538)"><path
         style="fill:#5db8e1;fill-opacity:1"
         d="m 104.56939,132.05691 c -0.78654,-0.06 0.01,-1.43241 -0.0793,-2.02527 0.0258,-0.58712 0.65621,-2.38226 -0.37848,-1.27192 -0.62914,0.47983 -1.2399,0.9844 -1.89125,1.43435 -0.83803,-0.7465 0.38571,-1.12741 0.87551,-1.60811 0.85615,-0.69099 1.77807,-1.30424 2.57749,-2.06228 0.19223,0.825 -0.23697,1.85396 -0.28377,2.75741 -0.18435,0.91714 -0.20081,1.89597 -0.48638,2.77592 -0.11128,-3e-5 -0.22257,-7e-5 -0.33385,-1e-4 z"
         id="path28"
         sodipodi:nodetypes="cccccccccc" /><path
         style="fill:#5db8e1;fill-opacity:1"
         d="m 85.990066,132.05691 c -0.86163,0.0513 -0.39833,-1.4456 -0.72171,-2.01897 -0.15146,-1.18485 -0.4888,-2.4295 -0.52577,-3.57751 1.27467,1.07401 2.72844,2.06539 3.91443,3.16342 -0.34301,1.15825 -1.13467,-0.23101 -1.73661,-0.50814 -0.73175,-0.66845 -1.49352,-1.22898 -0.9964,0.18927 0.1415,0.91798 0.338,1.83086 0.44705,2.75186 -0.127,2e-5 -0.25399,5e-5 -0.38099,7e-5 z"
         id="path27"
         sodipodi:nodetypes="cccccccc" /><path
         style="fill:#31a5da;fill-opacity:1"
         d="m 99.306006,140.52248 c -1.21313,-2.13462 -2.22998,-4.53763 -3.36765,-6.7748 v -14.13687 c 0.54001,0.42124 0.70301,1.42881 1.10174,2.06903 1.73631,3.81203 3.576164,7.60126 5.248294,11.42743 -0.90576,2.48439 -1.95875,4.9405 -2.921004,7.41403 z"
         id="path26"
         sodipodi:nodetypes="ccccccc" /><path
         style="fill:#81c8e8;fill-opacity:1"
         d="m 99.238506,138.74246 c 0.810274,-1.79564 1.499664,-3.75672 2.263764,-5.61555 -1.608654,-3.44105 -3.180414,-6.89924 -4.787784,-10.34088 1.066918,6.84341 1.226525,9.47774 2.52404,15.95643 z"
         id="path25"
         sodipodi:nodetypes="ccccc" /><path
         style="fill:#5db8e1;fill-opacity:1"
         d="m 81.453576,144.33358 c -2.47757,-4.27969 -5.01276,-8.69274 -7.45326,-13.05752 1.25993,-0.0142 2.66134,0.41352 3.97594,0.57009 2.94764,0.46947 5.88432,1.04021 8.83297,1.4807 0.18867,1.22362 -1.0204,0.53307 -1.71096,0.50884 -2.91741,-0.49312 -5.84565,-0.93187 -8.75719,-1.45334 2.70679,1.88032 5.39734,3.78353 8.08261,5.69431 -0.0781,1.21631 -0.91483,0.1897 -1.45582,-0.14122 -2.39772,-1.67687 -4.79545,-3.35373 -7.19318,-5.0306 2.07137,3.64455 4.17898,7.27107 6.2076,10.9392 -0.18443,0.1314 -0.31367,0.43513 -0.52871,0.48954 z"
         id="path24"
         sodipodi:nodetypes="ccccccccccc" /><path
         style="fill:#31a5da;fill-opacity:1"
         d="m 108.61241,145.08716 c -3.04263,-0.57779 -6.07816,-1.20671 -9.118074,-1.80409 1.025464,-2.97947 2.339214,-5.90676 3.516444,-8.84964 0.0998,-0.99428 0.82428,-1.23164 1.70853,-1.24217 3.92576,-0.69135 7.86583,-1.30842 11.79294,-1.98386 -0.73458,1.72839 -1.87683,3.34854 -2.76831,5.03528 -1.67535,2.95194 -3.38767,5.88305 -5.03055,8.85328 z"
         id="path23"
         sodipodi:nodetypes="cccccccc" /><path
         style="fill:#81c8e8;fill-opacity:1"
         d="m 100.88234,141.81613 c 4.38434,-3.15651 8.8299,-6.23809 13.1991,-9.41104 -3.37062,0.6316 -6.81487,1.0771 -10.15931,1.72612 -0.99742,2.59858 -2.09633,5.15852 -3.13347,7.74197 z"
         id="path22"
         sodipodi:nodetypes="ccccc" /><path
         style="fill:#31a5da;fill-opacity:1"
         d="m 108.31421,144.1735 c 2.14279,-3.74562 4.30971,-7.49789 6.42294,-11.26686 -4.58019,3.24404 -9.15497,6.49582 -13.71876,9.76289 0.56786,0.38297 1.63029,0.36013 2.38571,0.5892 1.62951,0.28275 3.31183,0.74316 4.91011,0.91477 z"
         id="path21"
         sodipodi:nodetypes="ccccc" /><path
         style="fill:#5db8e1;fill-opacity:1"
         d="m 78.805976,149.74473 c -2.59684,-1.2228 -5.31681,-2.36571 -7.84189,-3.63002 2.60708,-1.30914 5.40207,-2.46488 8.08334,-3.71064 0.83861,0.86425 -0.5516,1.02845 -1.14159,1.36269 -1.10346,0.53472 -2.47784,1.01747 -3.41463,1.58415 1.95328,-0.2931 3.89472,-0.72771 5.85533,-0.9331 0.6742,1.01771 -0.8653,0.75927 -1.45581,0.9657 -1.89107,0.31558 -3.78213,0.63117 -5.67319,0.94675 1.98706,0.91028 3.97165,1.82805 5.96468,2.72386 -0.12636,0.22205 -0.24049,0.50184 -0.37624,0.69061 z"
         id="path20"
         sodipodi:nodetypes="cccccccccc" /><path
         style="fill:#5db8e1;fill-opacity:1"
         d="m 111.66547,149.83483 c -0.84277,-0.81798 0.54336,-1.00926 1.10897,-1.34025 1.2317,-0.56898 2.46652,-1.13122 3.69559,-1.70586 -2.01046,0.36635 -4.03041,0.73169 -6.05135,1.01623 -0.78577,-0.98915 0.76727,-0.73417 1.34917,-0.94834 1.86402,-0.32935 3.72806,-0.65848 5.59738,-0.95662 -2.06133,-0.93134 -4.12266,-1.86267 -6.184,-2.794 0.0608,-1.1909 1.12275,-0.27942 1.75653,-0.0525 2.21718,1.04008 4.55576,1.99927 6.70685,3.06677 -2.5674,1.27767 -5.34018,2.49113 -7.97914,3.71458 z"
         id="path19"
         sodipodi:nodetypes="sccccccccss" /><path
         style="fill:#31a5da;fill-opacity:1"
         d="m 95.338316,153.42823 c -0.34296,-0.41364 -0.3143,-1.66335 -0.5083,-2.39606 -0.27724,-1.72684 -1.16134,-3.57167 -2.96825,-4.10208 -0.94593,-0.42219 -2.14314,-0.44743 -3.03419,-0.71264 0.40978,-0.62204 1.50215,-0.37207 2.17946,-0.68886 1.56389,-0.27368 2.98268,-1.29144 3.43847,-2.85787 0.8134,-2.61432 0.47981,-5.45507 0.81542,-8.10204 0.30214,1.38574 0.18123,2.95936 0.32246,4.41657 0.17724,2.10614 0.28192,4.77702 2.37044,5.92411 2.620714,1.1753 5.609544,0.8665 8.415864,1.02409 1.09884,-0.12883 1.53037,0.38537 0.16695,0.28121 -2.80827,0.22547 -5.77732,-0.11861 -8.422784,1.00107 -2.20109,1.14882 -2.44406,3.92935 -2.70384,6.13468 z"
         id="path18"
         sodipodi:nodetypes="cccccccccccccc" /><path
         style="fill:#31a5da;fill-opacity:1"
         d="m 74.498766,160.25091 c 0.25421,-0.83868 0.95882,-1.92185 1.41795,-2.83633 3.70722,-6.67523 7.07592,-13.52747 10.3341,-20.43094 2.77292,-5.75455 5.47168,-11.54438 8.20592,-17.31732 0.4834,0.21753 0.0783,1.66208 0.21166,2.36301 v 11.52482 c -3.15629,6.47367 -6.33731,12.93523 -9.52499,19.39349 -3.55063,2.42366 -7.06958,4.95019 -10.64464,7.30327 z"
         id="path17"
         sodipodi:nodetypes="cccccccc" /><path
         style="fill:#000000"
         d="m 90.308016,130.36358 c 0.18352,-0.0969 -0.17517,-0.10551 0,0 z"
         id="path16"
         sodipodi:nodetypes="cc" /><path
         style="fill:#000000"
         d="m 90.237516,130.58935 c 0.1138,-0.38978 -0.24988,0.11101 0,0 z"
         id="path15"
         sodipodi:nodetypes="cc" /><path
         style="fill:#ffffff;fill-opacity:0.22222"
         d="m 87.041036,147.33924 c 2.27697,-4.62622 4.5478,-9.25545 6.81732,-13.88533 -0.005,-3.53621 0.0957,-7.34089 0.024,-10.71034 -0.99336,1.99156 -1.93332,4.02258 -2.41123,6.21198 -1.88546,6.75332 -3.65848,13.55029 -5.43422,20.32525 0.25678,-0.29942 0.68603,-1.35453 1.00412,-1.94156 z"
         id="path14"
         sodipodi:nodetypes="sccccss" /><path
         style="fill:#000000"
         d="m 85.990076,149.49824 c 0.18351,-0.0969 -0.17517,-0.10551 0,0 z"
         id="path13"
         sodipodi:nodetypes="cc" /><path
         style="fill:#31a5da;fill-opacity:1"
         d="m 116.02557,160.33033 c -3.53153,-2.42372 -7.07416,-4.89836 -10.58588,-7.37618 -0.92929,-1.90016 -2.06836,-3.83311 -2.8693,-5.71321 2.111,-0.0182 4.3059,0.17997 6.44901,0.24459 1.97323,3.24362 3.71494,6.65842 5.59365,9.97087 0.47152,0.96495 1.09131,1.89284 1.47607,2.87946 z"
         id="path11"
         sodipodi:nodetypes="ccccccc" /><path
         style="fill:#81c8e8;fill-opacity:1"
         d="m 114.03809,158.0099 c -1.72111,-3.23321 -3.59668,-6.50087 -5.392,-9.73937 -1.63296,-0.0847 -3.26593,-0.16933 -4.89889,-0.254 4.79457,4.80281 5.98136,6.03563 10.29089,9.99337 z"
         id="path10"
         sodipodi:nodetypes="cccc" /><path
         style="fill:#5db8e1;fill-opacity:1"
         d="m 114.7979,161.00212 c -3.81527,-0.54298 -7.61436,-1.3308 -11.38812,-2.0569 0.0229,-0.9913 1.07821,-0.54215 1.72157,-0.43428 2.39486,0.41834 4.77847,0.93575 7.17582,1.31665 -2.34054,-1.64924 -4.72126,-3.24349 -7.06267,-4.88973 0.22602,-1.24082 1.18594,0.0786 1.78901,0.34682 2.65215,1.86168 5.39038,3.60679 7.94608,5.60119 0.0497,0.18684 -0.0354,0.12489 -0.18169,0.11625 z"
         id="path9"
         sodipodi:nodetypes="cccccccc" /><path
         style="fill:#31a5da;fill-opacity:1"
         d="m 76.105246,160.96885 c -1.18852,0.20763 0.47684,-0.81764 0.77463,-1.10327 3.00867,-2.04225 6.02778,-4.06918 9.02105,-6.134 h 18.758144 c -0.73401,1.80514 -1.79237,3.53162 -2.65023,5.30673 -4.675484,0.1045 -9.359544,0.0813 -14.030434,0.15459 -3.9584,0.58659 -7.91245,1.20819 -11.87316,1.77595 z"
         id="path8"
         sodipodi:nodetypes="ccccccc" /><path
         style="fill:#000000"
         d="m 86.914356,158.63556 c 0.59583,-0.002 -0.59422,-0.12427 0,0 z"
         id="path6"
         sodipodi:nodetypes="cc" /><path
         style="fill:#81c8e8;fill-opacity:1"
         d="m 78.565946,159.74291 c 7.26133,-1.67711 14.51002,-3.45995 21.779514,-5.12233 l -14.315464,-0.0432 c -2.51659,1.7285 -5.09087,3.38563 -7.56678,5.16554 z"
         id="path5"
         sodipodi:nodetypes="ccccc" /><path
         style="fill:#000000"
         d="m 78.370076,159.82761 c 0.18352,-0.0969 -0.17517,-0.10551 0,0 z"
         id="path4"
         sodipodi:nodetypes="cc" /><path
         style="fill:#5db8e1;fill-opacity:1"
         d="m 105.5269,165.41088 c -1.37805,-1.01702 -2.64128,-2.25546 -4.02747,-3.29003 0.37364,-1.21239 1.13003,0.0567 1.70271,0.41348 0.44835,0.20182 1.72016,1.89686 1.39007,0.56911 -0.0839,-0.92281 -0.22445,-1.84256 -0.27194,-2.76733 1.12658,-0.34819 0.73408,0.99205 0.9262,1.68495 0.10653,1.13212 0.27703,2.26078 0.34374,3.39505 z"
         id="path3"
         sodipodi:nodetypes="cccccccc" /><path
         style="fill:#5db8e1;fill-opacity:1"
         d="m 85.076916,165.40488 c -0.3595,-0.12723 0.12315,-1.61541 0.0899,-2.24918 0.10226,-0.91178 0.20453,-1.82357 0.3068,-2.73536 1.20322,-0.34454 0.56379,1.05654 0.57867,1.74507 -0.0799,0.72869 -0.46048,2.21826 0.5262,1.00553 0.72736,-0.50889 1.33137,-1.35325 2.13676,-1.64992 0.76162,0.75521 -0.53956,1.08118 -0.94802,1.61971 -0.8979,0.75332 -1.7871,1.51727 -2.69028,2.26415 z"
         id="path1"
         sodipodi:nodetypes="scccccccs" /><path
         style="fill:#5db8e1;fill-opacity:1"
         d="m 95.269936,172.00061 c -0.8497,-1.3629 -1.55314,-3.0912 -2.34666,-4.59447 -1.14914,-2.41839 -2.49748,-4.84274 -3.49614,-7.27111 0.95931,-0.53249 1.01639,0.84477 1.43528,1.41449 1.2956,2.6923 2.64652,5.35736 3.9753,8.03333 0.0824,-3.13796 0.0178,-6.27946 0.0847,-9.41638 1.23277,-0.35909 0.62185,1.12747 0.76399,1.86017 0.003,2.4985 0.005,4.997 0.008,7.4955 1.58925,-3.17119 3.17851,-6.34239 4.767764,-9.51358 1.35239,-0.036 0.0862,1.21002 -0.0992,1.87441 -1.708814,3.35963 -3.327884,6.82156 -5.092994,10.11764 z"
         id="path2"
         sodipodi:nodetypes="cccccccccccc" /><path
         style="font-weight:600;font-size:14.1111px;font-family:'Exo 2';-inkscape-font-specification:'Exo 2 Semi-Bold';letter-spacing:1.91294px;fill:#31a5da;fill-opacity:1;stroke-width:0.264583"
         d="m 66.583339,174.58428 v 7.47888 q 0,0.40922 0.211667,0.62089 0.22578,0.19755 0.635,0.19755 h 3.44311 l 0.0847,1.34056 q -0.95956,0.0847 -2.00378,0.0988 -1.03011,0.0282 -2.046108,0.0282 -1.072443,0 -1.580443,-0.55033 -0.493888,-0.55034 -0.493888,-1.397 v -7.81755 z m 14.851307,0 v 5.92666 q 0,1.45344 -0.35278,2.32833 -0.35277,0.87489 -1.15711,1.27 -0.80433,0.39511 -2.159,0.39511 -1.41111,0 -2.25777,-0.39511 -0.84667,-0.39511 -1.22767,-1.27 -0.36689,-0.87489 -0.36689,-2.32833 v -5.92666 h 1.76389 v 5.92666 q 0,0.95955 0.18345,1.524 0.19755,0.56444 0.635,0.80433 0.43744,0.22578 1.18533,0.22578 0.74789,0 1.17122,-0.22578 0.43744,-0.23989 0.62089,-0.80433 0.19755,-0.56445 0.19755,-1.524 v -5.92666 z m 13.65337,0 q 0.66322,0 0.67734,0.67733 l 0.38099,9.05933 h -1.67922 l -0.33866,-8.33966 h -0.26811 l -1.82034,6.53344 q -0.127,0.57855 -0.71966,0.57855 h -1.24178 q -0.60678,0 -0.74789,-0.57855 l -1.82032,-6.53344 h -0.26812 l -0.31044,8.33966 h -1.67922 l 0.381,-9.05933 q 0.0282,-0.67733 0.67733,-0.67733 h 1.76389 q 0.56444,0 0.70555,0.57855 l 1.49578,5.334 q 0.0988,0.33867 0.15522,0.67733 0.0705,0.33867 0.15522,0.67733 h 0.21167 q 0.0847,-0.33866 0.15522,-0.67733 0.0706,-0.33866 0.15522,-0.69144 l 1.49578,-5.31989 q 0.127,-0.57855 0.71966,-0.57855 z m 6.724834,0 v 9.73666 h -1.76389 v -9.73666 z m 12.00237,0 v 9.07344 q 0,0.66322 -0.64911,0.66322 h -1.19945 q -0.29633,0 -0.45155,-0.127 -0.15522,-0.14111 -0.28222,-0.40922 l -2.94922,-5.87022 q -0.15523,-0.31045 -0.32456,-0.67734 -0.15522,-0.38099 -0.254,-0.71966 h -0.18344 q 0.0282,0.35278 0.0423,0.71966 0.0282,0.35278 0.0282,0.70556 v 6.37822 h -1.69333 v -9.07344 q 0,-0.66322 0.64911,-0.66322 h 1.17122 q 0.29634,0 0.45156,0.14111 0.15522,0.127 0.28222,0.39511 l 2.86455,5.715 q 0.16934,0.31044 0.33867,0.70555 0.18344,0.381 0.33867,0.77611 h 0.21166 q -0.0282,-0.40922 -0.0564,-0.79022 -0.0141,-0.39511 -0.0141,-0.77611 v -6.16655 z m 8.37582,0 q 0.22578,0 0.39511,0.127 0.16934,0.127 0.23989,0.33866 l 2.94922,9.271 h -1.80622 l -2.22955,-7.50711 q -0.0565,-0.22578 -0.11289,-0.45155 -0.0564,-0.22578 -0.0988,-0.43745 h -0.39511 q -0.0423,0.21167 -0.0988,0.43745 -0.0564,0.22577 -0.127,0.45155 l -2.21544,7.50711 h -1.80622 l 2.94922,-9.271 q 0.0564,-0.21166 0.22578,-0.33866 0.18344,-0.127 0.40922,-0.127 z m 1.63689,5.57388 v 1.38289 h -5.00944 v -1.38289 z"
         id="text1"
         aria-label="LUMINA" /></g></g></svg>
